<?xml version="1.0" encoding="UTF-8"?>
<svg id="Capa_1" data-name="Capa 1" xmlns="http://www.w3.org/2000/svg" viewBox="0 0 2616.72 1052.39">
  <defs>
    <style>
      .cls-1 {
        fill: #ff6825;
        stroke-width: 0px;
      }
    </style>
  </defs>
  <g>
    <g>
      <path class="cls-1" d="M184.62,895.26c-10.92-27.4-36.02-44.43-65.51-44.43s-54.6,17.02-65.51,44.43L1.36,1026.37c-1.87,4.71-1.8,9.87.2,14.53,2.01,4.66,5.7,8.26,10.41,10.13,2.27.9,4.65,1.36,7.02,1.36,2.55,0,5.1-.52,7.51-1.56,4.66-2.01,8.26-5.71,10.13-10.41l52.23-131.11c5.12-12.84,16.42-20.5,30.24-20.5s25.12,7.66,30.23,20.5l52.17,130.95c1.88,4.71,5.48,8.4,10.14,10.41,4.66,2.01,9.82,2.08,14.53.2,4.71-1.88,8.4-5.48,10.41-10.14,2.01-4.66,2.08-9.82.2-14.53l-52.17-130.95Z"/>
      <path class="cls-1" d="M472.73,952l-136.39-36.67-.17-.06c-5.32-1.93-8.9-7.05-8.9-12.75,0-7.49,6.09-13.58,13.58-13.58h134.87c10.5,0,19.04-8.54,19.04-19.04s-8.54-19.05-19.04-19.05h-134.87c-28.49,0-51.67,23.18-51.67,51.67,0,21.85,13.83,41.42,34.41,48.71l136.4,36.67.14.05c5.33,1.95,8.91,7.08,8.91,12.76,0,7.49-6.09,13.58-13.58,13.58h-134.88c-10.5,0-19.04,8.54-19.04,19.04s8.54,19.04,19.04,19.04h134.88c28.49,0,51.67-23.18,51.67-51.67,0-21.85-13.83-41.42-34.41-48.71Z"/>
      <path class="cls-1" d="M756.7,850.84h-179.84c-10.5,0-19.04,8.55-19.04,19.05s8.54,19.04,19.04,19.04h70.88v144.37c0,10.5,8.55,19.04,19.05,19.04s19.04-8.54,19.04-19.04v-144.37h70.88c10.5,0,19.04-8.55,19.04-19.05s-8.54-19.04-19.04-19.04Z"/>
      <path class="cls-1" d="M992.43,854.28c-6.41-2.29-13.13-3.44-19.97-3.44h-126.63c-10.5,0-19.04,8.55-19.04,19.05s8.49,18.99,18.98,19.04h126.69c11.91,0,21.69,9.69,21.8,21.6v.41c-.11,11.91-9.89,21.6-21.81,21.6h-86.33c-6.65.06-13.18,1.22-19.41,3.44-9.05,3.22-17.29,8.66-23.85,15.71-10.37,11.16-16.09,25.63-16.09,40.75v40.86c0,10.5,8.54,19.04,19.04,19.04s19.05-8.54,19.05-19.04v-41.06c.11-11.26,8.98-20.72,20.14-21.54.55-.04,1.1-.06,1.66-.06h70.91l27.8,69.75c2.96,7.43,10.11,11.96,17.66,11.96,2.33,0,4.71-.43,7-1.35,9.73-3.88,14.48-14.94,10.61-24.66l-24.2-60.75.26-.12c11.62-5.17,21.5-14.15,27.83-25.29,5.1-8.98,7.8-19.16,7.8-29.44,0-25.26-16.05-47.95-39.93-56.45Z"/>
      <path class="cls-1" d="M1464.55,850.84h-305.55c-41.68,0-75.6,33.91-75.6,75.6v50.31c0,41.68,33.91,75.6,75.6,75.6h305.55c41.69,0,75.6-33.91,75.6-75.6v-50.31c0-41.69-33.92-75.6-75.6-75.6ZM1464.55,1014.25h-305.55c-20.68,0-37.51-16.82-37.51-37.5v-50.31c0-20.68,16.83-37.51,37.51-37.51h305.55c20.68,0,37.51,16.83,37.51,37.51v50.31c0,20.68-16.83,37.5-37.51,37.5Z"/>
      <path class="cls-1" d="M1775.81,895.26c-10.92-27.4-36.02-44.43-65.51-44.43s-54.59,17.02-65.52,44.43l-52.24,131.11c-1.88,4.71-1.8,9.87.2,14.53,2.01,4.66,5.71,8.26,10.41,10.13,2.27.9,4.65,1.36,7.02,1.36,2.55,0,5.1-.52,7.51-1.56,4.67-2.01,8.26-5.71,10.13-10.41l52.24-131.11c5.12-12.84,16.42-20.5,30.24-20.5s25.12,7.66,30.23,20.5l52.17,130.95c3.87,9.73,14.94,14.49,24.66,10.61,4.71-1.88,8.41-5.48,10.42-10.14,2.01-4.66,2.08-9.82.2-14.52l-52.17-130.95Z"/>
      <path class="cls-1" d="M2086.34,850.84c-10.5,0-19.05,8.54-19.05,19.04v135.61c0,4.83-3.93,8.76-8.76,8.76h-4.1c-2.13,0-4.25-.53-6.11-1.54-2.72-1.47-4.31-3.33-6.8-7.94-.71-1.31-1.37-2.65-2-3.97-.63-1.33-1.23-2.66-1.84-4.02l-46.04-102.1-1.7-3.81c-.73-1.62-1.45-3.24-2.21-4.83-.92-1.93-1.88-3.85-2.89-5.72-4.02-7.46-10.19-16.85-22.21-23.35-7.42-4.01-15.8-6.13-24.23-6.13h-6.63l-.8.03c-23.17,1.64-41.86,20.34-43.49,43.5l-.03,138.93c0,10.5,8.54,19.04,19.04,19.04s19.04-8.54,19.04-19.04v-135.6c0-4.83,3.93-8.76,8.77-8.76h4.09c2.13,0,4.25.53,6.11,1.54,2.72,1.47,4.31,3.33,6.8,7.94.7,1.3,1.36,2.63,1.99,3.96.63,1.33,1.23,2.66,1.83,4.01l46.04,102.12,1.7,3.81c.73,1.62,1.46,3.24,2.22,4.84.92,1.93,1.88,3.84,2.89,5.71,4.02,7.46,10.18,16.85,22.2,23.36,7.41,4.01,15.79,6.12,24.23,6.12h7.03l.4-.03c23.17-1.63,41.87-20.33,43.5-43.5l.03-138.93c0-10.5-8.54-19.04-19.04-19.04Z"/>
      <path class="cls-1" d="M2286.4,850.84h-110.93c-10.5,0-19.04,8.55-19.04,19.05s8.54,19.04,19.04,19.04h110.93c20.68,0,37.51,16.83,37.51,37.51v50.3c0,20.68-16.83,37.51-37.51,37.51h-110.93c-10.5,0-19.04,8.55-19.04,19.05s8.54,19.04,19.04,19.04h110.93c41.69,0,75.6-33.91,75.6-75.6v-50.3c0-41.69-33.91-75.6-75.6-75.6Z"/>
      <path class="cls-1" d="M2616.72,869.44c-.24-10.19-8.41-18.36-18.59-18.59h-.31s-.57,0-.57,0c-10.26.24-18.61,8.78-18.61,19.04v10.78c0,35.59-33.05,51.8-63.75,51.8s-63.75-16.21-63.75-51.8v-10.78c0-10.26-8.34-18.8-18.6-19.04h-.31s-.57,0-.57,0c-10.26.24-18.6,8.78-18.6,19.04v10.78c0,45.58,33.08,80.66,82.8,88.47v64.17c0,10.5,8.54,19.04,19.04,19.04s19.04-8.54,19.04-19.04v-64c25.01-3.78,46.86-15.11,61.91-32.18,13.67-15.51,20.89-35.03,20.89-56.46v-11.22Z"/>
    </g>
    <path class="cls-1" d="M1277.98,960.11c10.13,3.75,18.11,11.73,21.86,21.86l8.52,23.04,8.52-23.04c3.75-10.13,11.73-18.11,21.86-21.86l23.04-8.52-23.04-8.52c-10.13-3.75-18.11-11.73-21.86-21.86l-8.52-23.04-8.52,23.04c-3.75,10.13-11.73,18.11-21.86,21.86l-23.04,8.52,23.04,8.52Z"/>
  </g>
  <g>
    <g>
      <path class="cls-1" d="M1687.86,486.93l-115.58-198.11h-.08s-35.45-60.94-35.45-60.94c0,0-.01,0-.02,0l-91.95-157.6s0,0,0,0c-1.96-3.32-4.1-6.89-5.7-9.41,0,0-.02,0-.03,0-24.93-38.76-64.21-60.88-108.79-60.88s-87.64,24.25-112.3,66.52l-145.35,267.45-32.34,59.52h-.01s-103.32,190.12-103.32,190.12c-.69,1.18-1.26,2.4-1.78,3.65-6.07,10.49-11.57,21.04-6.77,32.6,4.37,10.52,14.04,16.78,24.17,16.78,3.57,0,7.2-.78,10.67-2.41l352.64-201.95c9.28-5.08,20.09-5.95,29.98-2.43l311.15,102.44c7.02,1.83,14.06.48,19.81-3.18.68-.37,1.38-.71,2.04-1.15,13.08-8.67,17.11-27.07,8.97-41.02ZM1340.2,400.37c-8.44-2.26-17.36-1.43-25.31,2.36l-307.03,154.21,92.16-169.58s.09,0,.14,0l27.69-50.9c-.06,0-.11,0-.17,0l135.24-248.85c15.19-26.03,39.39-40.37,68.14-40.37,23.95,0,44.72,9.98,59.77,28.34,0,0,.36.45,1.06,1.32,2.62,3.32,5.07,6.87,7.31,10.7l89.93,154.15h.07s27.04,46.56,27.04,46.56c.02,0,.03-.01.04-.02l105.63,181.06-281.72-68.99Z"/>
      <path class="cls-1" d="M1422.64,89.84v8.28c142.18,8.79,246.01,45.16,247.69,92.48,2.08,58.88-154.74,112.36-350.27,119.46-195.53,7.1-355.73-34.88-357.81-93.76-1.82-51.62,118.5-99.09,279.96-114.79v-9.93c-210.88,15.45-371.5,75.53-369.63,142.5,2.06,73.54,199.27,127.53,440.48,120.58,241.21-6.95,435.08-72.2,433.02-145.74-1.72-61.19-138.58-108.81-323.43-119.08Z"/>
    </g>
    <path class="cls-1" d="M1285.84,198.18c12.55,5.28,22.45,16.53,27.1,30.81l10.57,32.47,10.57-32.47c4.65-14.27,14.54-25.53,27.1-30.81l28.56-12.01-28.56-12.01c-12.55-5.28-22.45-16.53-27.1-30.81l-10.57-32.47-10.57,32.47c-4.65,14.27-14.54,25.53-27.1,30.81l-28.56,12.01,28.56,12.01Z"/>
  </g>
</svg>