<?xml version="1.0" encoding="UTF-8"?>
<svg id="Capa_1" data-name="Capa 1" xmlns="http://www.w3.org/2000/svg" viewBox="0 0 2017.03 1529.06">
  <defs>
    <style>
      .cls-1 {
        fill: #1d1d1b;
      }

      .cls-1, .cls-2 {
        stroke-width: 0px;
      }

      .cls-2 {
        fill: #fff;
      }
    </style>
  </defs>
  <path class="cls-2" d="M2016.96,536.15h0c-2.04-72.54-44.99-175.07-238.09-251.68-104.29-41.37-241.36-71.74-399.02-88.6-4.94-8.35-8.92-14.89-12.12-19.94-.83-1.3-1.68-2.59-2.55-3.85C1293.34,62.67,1179.29,0,1051.68,0c-66.71,0-131.78,17.65-188.16,51.05-55.5,32.88-102.93,81.28-137.17,139.97-.55.95-1.09,1.91-1.61,2.87l-4.91,9.04c-181.44,22.45-340.21,60.6-461.86,111.19-72.97,30.34-131.13,64.9-172.86,102.74C12.56,482.61-1.17,549.52.08,594.07c1.71,61.14,32.88,149.2,171.66,221.56,49.5,25.81,109.26,48.26,178.62,67.14l-203.92,375.23c-1.99,3.52-3.87,7.16-5.66,10.98-16.41,28.79-46.61,88.01-17.41,158.38,25.63,61.78,84.63,101.7,150.33,101.7,23.73,0,46.73-5.16,68.34-15.34,2.63-1.24,5.21-2.58,7.73-4.02l712.43-407.99,628.53,206.92c2.18.72,4.39,1.37,6.62,1.95,41.26,10.74,85.54,4.39,122.3-17.37,2.44-1.33,6.09-3.39,10.25-6.15,75.43-49.99,98.44-151.04,52.37-230.06l-137.19-235.16c53.58-21.35,99.54-44.81,137.41-70.17,114.01-76.35,136.06-159.34,134.49-215.53Z"/>
  <g>
    <path class="cls-1" d="M1908.16,539.19c-3.31-117.96-250.43-211.42-594.2-240.28l-26.42-45.28s0,0,.02,0c-4.03-6.84-8.44-14.19-11.74-19.39-.02,0-.04,0-.06,0-51.36-79.84-132.27-125.4-224.08-125.4s-180.52,49.94-231.32,137.02l-31.98,58.84C395,345.18,105.25,461.88,108.87,591.02c2.66,95.1,163.75,174.31,406.21,216.57l-60.73,111.78h-.03s-212.82,391.62-212.82,391.62c-1.41,2.42-2.59,4.94-3.66,7.51-12.5,21.61-23.83,43.34-13.95,67.15,8.99,21.67,28.91,34.56,49.8,34.56,7.35,0,14.82-1.6,21.98-4.97l726.39-415.99c19.11-10.45,41.37-12.26,61.75-5.02l640.93,211.01c14.46,3.77,28.97.98,40.81-6.55,1.41-.77,2.84-1.47,4.19-2.37,26.94-17.86,35.23-55.76,18.48-84.5l-204.61-350.71c200.3-56.11,326.93-136.29,324.53-221.94ZM1053.29,206.15c49.33,0,92.11,20.55,123.11,58.37,0,0,.75.93,2.19,2.73,5.39,6.84,10.44,14.15,15.05,22.05l185.25,317.53h.14s52.13,89.76,52.13,89.76c-114.42,27.14-252.05,45.53-400.55,50.92-129.89,4.72-252.19-1.1-358.45-15.18l240.77-443.03c31.29-53.62,81.13-83.15,140.37-83.15ZM293.58,554.4c-3.39-95.9,197.91-184.84,481.44-225.1l-209.28,385.08c-163.95-34.38-269.75-91.65-272.16-159.98ZM1652.41,1075.66l-580.31-142.11c-17.39-4.66-35.75-2.95-52.13,4.86l-632.44,317.66,189.83-349.31c.1,0,.19,0,.29-.01l45.39-83.43c119.08,14.14,252.48,20.15,393.15,16.1,171.54-4.94,331.44-24.2,467.14-53.54l169.07,289.79ZM1529.87,669.17l-52.9-90.93s-.02.01-.03.02l-151.95-260.45c249.41,26.02,424.03,95.64,427.14,183.63,2.22,62.8-83.34,122.61-222.25,167.73Z"/>
    <path class="cls-1" d="M960.13,517.05c25.86,10.88,46.24,34.06,55.81,63.46l21.77,66.88,21.76-66.88c9.57-29.4,29.96-52.58,55.82-63.46l58.82-24.75-58.82-24.75c-25.86-10.88-46.25-34.06-55.82-63.46l-21.76-66.88-21.77,66.88c-9.57,29.4-29.96,52.58-55.81,63.46l-58.83,24.75,58.83,24.75Z"/>
  </g>
</svg>