<?xml version="1.0" encoding="UTF-8"?>
<svg id="Capa_1" data-name="Capa 1" xmlns="http://www.w3.org/2000/svg" viewBox="0 0 1422.76 2118.52">
  <defs>
    <style>
      .cls-1 {
        fill: #ff6825;
        stroke-width: 0px;
      }
    </style>
  </defs>
  <g>
    <g>
      <path class="cls-1" d="M1422.76,939.65v-10.76c0-210.55-152.25-246.81-152.25-246.81v-217.57c0-90.07-97.78-130.76-97.78-130.76C1100.87-20.61,711.38.23,711.38.23c0,0-389.49-20.84-461.35,333.51,0,0-97.78,40.7-97.78,130.76v217.57S0,718.34,0,928.89v10.76s0,0,0,.01v622.46s.43,187.81,231.11,143.94v290.53s-8.87,118.68,141.14,118.68l339.13,3.25,339.13-3.25c150.02,0,141.14-118.68,141.14-118.68v-290.53c230.68,43.87,231.11-143.94,231.11-143.94v-622.47ZM711.17,81.71s.18,0,.21,0c.03,0,.21,0,.21,0,434.32,0,407,349.41,407,349.41,0,360.97-322.2,328.77-322.2,328.77h-170.02s-322.2,32.2-322.2-328.77c0,0-27.31-349.41,407-349.41ZM163.38,1635.81c-38.93,0-70.5-30.51-70.5-68.14s31.56-68.14,70.5-68.14,70.5,30.51,70.5,68.14-31.56,68.14-70.5,68.14ZM163.38,1430.53c-38.93,0-70.5-30.51-70.5-68.14s31.56-68.14,70.5-68.14,70.5,30.51,70.5,68.14-31.56,68.14-70.5,68.14ZM626.01,1944.82c0,26.65-21.61,48.26-48.26,48.26h-171.45c-32.04,0-58.01-25.97-58.01-58.01,0-27.59,16.27-52.58,41.53-63.69,30.2-13.28,74.63-26.52,125.7-21.83,36.78,3.38,63.8,13.92,81.9,23.93,17.68,9.77,28.59,28.44,28.59,48.64v22.69ZM1016.46,1993.08h-171.45c-26.65,0-48.26-21.61-48.26-48.26v-22.69c0-20.2,10.9-38.87,28.58-48.64,18.1-10.01,45.12-20.55,81.9-23.93,51.08-4.69,95.5,8.55,125.7,21.83,25.26,11.1,41.53,36.1,41.53,63.69,0,32.04-25.97,58.01-58.01,58.01ZM1259.38,1635.81c-38.93,0-70.5-30.51-70.5-68.14s31.56-68.14,70.5-68.14,70.5,30.51,70.5,68.14-31.56,68.14-70.5,68.14ZM1259.38,1430.53c-38.93,0-70.5-30.51-70.5-68.14s31.56-68.14,70.5-68.14,70.5,30.51,70.5,68.14-31.56,68.14-70.5,68.14ZM1286.27,1211.55h-61.75c-25.35,0-45.89-20.55-45.89-45.89v-137.06c0-57.94-44.62-63.53-44.62-63.53-62.68,0-53.28,80.45-53.28,80.45v744.43s-71.51-40.01-153.56-40.01c-41.02,0-74.22,10-97.17,20.01-16.83,7.34-35.63-5.22-35.63-23.57v-214.63s10.6-80.26-82.99-81.53c-93.59,1.27-82.99,81.53-82.99,81.53v214.63c0,18.36-18.81,30.91-35.63,23.57-22.94-10-56.14-20.01-97.17-20.01-82.05,0-153.56,40.01-153.56,40.01v-744.43s9.4-80.45-53.28-80.45c0,0-44.62,5.59-44.62,63.53v137.06c0,25.35-20.55,45.89-45.89,45.89h-61.75c-26.68,0-48.31-21.63-48.31-48.31v-225.14h0v-10.78s-3.13-181.61,164.52-181.61h118.84c93.4,0,87.89,66.38,339.84,59.54,295.48-8.02,250.82-53.22,339.84-59.54h118.84c167.66,0,164.52,181.61,164.52,181.61v168.13h0v67.78c0,26.68-21.63,48.31-48.31,48.31Z"/>
      <path class="cls-1" d="M543.81,609.78h335.15s140.93-3.33,140.93-222.37c0,0,6.01-212.57-301.72-212.57-2.37,0-4.46.39-6.79.5-2.33-.12-4.42-.5-6.79-.5-307.72,0-301.72,212.57-301.72,212.57,0,219.04,140.93,222.37,140.93,222.37ZM559.7,543.66c0,6.23-3.66,12.09-9.64,14.73-4.79,2.1-10.29,1.8-14.75-.86-17.33-10.38-31.01-22.6-41.79-35.71-5.48-6.67-2.84-16.76,5.17-19.96l33.26-13.28c7.46-2.98,15.8,1.61,17.29,9.5,3.38,17.88,7.03,31.74,9.79,41,.44,1.52.68,3.06.68,4.58ZM456.64,375.54c7.14-76.47,56.72-113.03,84.48-127.68,7.4-3.9,15.99,2.68,14.17,10.85-15.73,70.91-17.29,132.8-13.62,181.24.42,5.57-2.81,10.74-8,12.81l-52.99,21.14c-6.86,2.74-14.69-.87-16.89-7.93-14.8-47.48-7.15-90.44-7.15-90.44Z"/>
    </g>
    <path class="cls-1" d="M497.87,1370.06c-16.77,0-31.84-10.22-38.4-26.03-7.89-19.02,1.45-35.27,4.96-41.39.43-.96.98-2.03,1.58-3.08l64.04-117.84c-68.65-17.16-105.45-45.2-106.46-81.2-.59-20.96,11.44-51.24,72.11-76.46,35.29-14.67,84.2-26.29,137.82-32.74l3.28-6.02c19.8-33.96,52.79-53.4,90.54-53.4,29.86,0,57.19,12.35,77.11,34.81l1.58-.26,9.11,14.37c1.09,1.72,2.56,4.16,3.9,6.43l1.23,2.08c23.96,2.53,68.61,8.62,106.92,21.57,51.19,17.3,77.58,41.83,78.45,72.9.63,22.67-13.36,54.96-83.12,80.82l44.26,75.86c11.87,20.37,5.97,46.4-13.44,59.27-.9.59-1.77,1.1-2.65,1.58-9.3,5.59-20.67,7.25-31.28,4.49l-1.27-.37-188.39-62.02-213.43,122.22-1,.48c-5.52,2.6-11.39,3.92-17.44,3.92ZM727.34,936.58c-36.05,0-67.57,18.6-86.48,51.02l-4.39,8.08-1.2.14c-53.68,6.38-102.61,17.94-137.78,32.56-58.22,24.21-69.78,52.53-69.24,72.02.96,34.17,37.56,60.98,105.84,77.51l2.95.72-66.96,123.2c-.55.97-1.04,1.92-1.52,2.95-3.6,6.28-11.81,20.56-4.79,37.46,5.84,14.06,19.22,23.15,34.09,23.15,5.36,0,10.56-1.17,15.45-3.48l.83-.39,215.07-123.17.99.33,189.3,62.32,1.13.33c9.2,2.39,19.36.97,27.72-4.04.85-.47,1.62-.91,2.39-1.42,17.35-11.5,22.61-34.79,11.99-53.02l-47.08-80.69,2.64-.95c69.41-25.07,83.27-55.85,82.67-77.26-.81-28.91-26.14-51.99-75.28-68.6-38.52-13.02-83.62-19.04-107.08-21.47l-1.17-.12-2.42-4.11c-1.31-2.22-2.74-4.61-3.82-6.3l-7.46-11.76-1.1.18-.85-.99c-19.09-22.04-45.53-34.18-74.45-34.18Z"/>
  </g>
  <g>
    <path class="cls-1" d="M979.97,1084.52c-.98-34.79-73.87-62.36-175.26-70.87l-7.79-13.36s0,0,0,0c-1.19-2.02-2.49-4.18-3.46-5.72,0,0-.01,0-.02,0-15.15-23.55-39.01-36.99-66.09-36.99s-53.25,14.73-68.23,40.42l-9.43,17.35c-116.03,11.94-201.5,46.36-200.43,84.45.79,28.05,48.3,51.41,119.81,63.88l-17.91,32.97h0s-62.77,115.51-62.77,115.51c-.42.71-.77,1.46-1.08,2.21-3.69,6.38-7.03,12.78-4.11,19.81,2.65,6.39,8.53,10.19,14.69,10.19,2.17,0,4.37-.47,6.48-1.47l214.25-122.7c5.64-3.08,12.2-3.62,18.22-1.48l189.05,62.24c4.27,1.11,8.55.29,12.04-1.93.42-.23.84-.43,1.24-.7,7.95-5.27,10.39-16.45,5.45-24.92l-60.35-103.44c59.08-16.55,96.43-40.2,95.72-65.46ZM727.82,986.29c14.55,0,27.17,6.06,36.31,17.22,0,0,.22.28.64.8,1.59,2.02,3.08,4.17,4.44,6.5l54.64,93.66h.04s15.38,26.48,15.38,26.48c-33.75,8-74.34,13.43-118.14,15.02-38.31,1.39-74.38-.32-105.73-4.48l71.02-130.68c9.23-15.82,23.93-24.53,41.4-24.53ZM503.74,1089c-1-28.29,58.38-54.51,142-66.39l-61.72,113.58c-48.36-10.14-79.56-27.03-80.28-47.19ZM904.53,1242.75l-171.17-41.92c-5.13-1.38-10.55-.87-15.38,1.43l-186.54,93.69,55.99-103.03s.06,0,.08,0l13.39-24.61c35.12,4.17,74.47,5.94,115.96,4.75,50.6-1.46,97.76-7.14,137.79-15.79l49.87,85.48ZM868.39,1122.86l-15.6-26.82s0,0,0,0l-44.82-76.82c73.56,7.68,125.07,28.21,125.99,54.16.65,18.52-24.58,36.17-65.56,49.47Z"/>
    <path class="cls-1" d="M700.34,1077.99c7.63,3.21,13.64,10.05,16.46,18.72l6.42,19.73,6.42-19.73c2.82-8.67,8.84-15.51,16.46-18.72l17.35-7.3-17.35-7.3c-7.63-3.21-13.64-10.05-16.46-18.72l-6.42-19.73-6.42,19.73c-2.82,8.67-8.84,15.51-16.46,18.72l-17.35,7.3,17.35,7.3Z"/>
  </g>
</svg>